<svg xmlns="http://www.w3.org/2000/svg" xmlns:xlink="http://www.w3.org/1999/xlink" stroke-miterlimit="10" stroke-linecap="square" stroke="none" fill="none" viewBox="184.2278860569715 131.04 597.3013493253374 349.92" version="1.1" style="max-height: 500px" width="597.3013493253374" height="349.92"><clipPath id="p.0"><path clip-rule="nonzero" d="m0 0l960.0 0l0 720.0l-960.0 0l0 -720.0z"/></clipPath><g clip-path="url(#p.0)"><path fill-rule="evenodd" d="m0 0l960.0 0l0 720.0l-960.0 0z" fill-opacity="0.0" fill="#000000"/><path fill-rule="evenodd" d="m32.725285 163.44357l894.5512 0l0 215.49606l-894.5512 0z" fill-opacity="0.0" fill="#000000"/><path fill-rule="nonzero" d="m235.92627 185.22652l67.640625 0q19.65625 0 30.5 8.953125q10.84375 8.9375 10.84375 23.453125q0 8.671875 -4.296875 15.453125q-4.296875 6.765625 -12.390625 10.796875q-8.09375 4.03125 -25.453125 5.796875q12.65625 3.453125 17.4375 6.7812347q4.78125 3.3125 7.65625 8.59375q2.875 5.265625 6.59375 21.46875q2.65625 11.59375 5.671875 15.84375q2.296875 3.28125 4.953125 3.28125q2.75 0 5.09375 -4.03125q2.34375 -4.03125 2.875 -14.21875l6.03125 0q-1.6875 30.109375 -22.234375 30.109375q-6.453125 0 -11.1875 -3.265625q-4.734375 -3.28125 -7.125 -9.65625q-1.859375 -4.78125 -4.171875 -25.0625q-1.328125 -11.78125 -4.203125 -16.734375q-2.875 -4.953125 -8.984375 -7.9687347q-6.109375 -3.015625 -14.609375 -3.015625l-10.71875 0l0 51.45311q0 3.265625 1.6875 4.59375q2.125 1.6875 6.640625 1.6875l12.578125 0l0 6.640625l-60.828125 0l0 -6.640625l12.828125 0q4.25 0 6.234375 -1.671875q2.0 -1.6875 2.0 -4.609375l0 -104.656235q0 -3.359375 -2.03125 -5.046875q-2.03125 -1.6875 -6.203125 -1.6875l-12.828125 0l0 -6.640625zm39.921875 60.203125l15.5 0q15.578125 0 24.390625 -5.875q8.8125 -5.890625 8.8125 -20.9375q0 -10.359375 -3.328125 -16.375q-3.3125 -6.03125 -8.71875 -8.234375q-5.390625 -2.21875 -21.25 -2.21875q-10.4375 0 -12.921875 1.46875q-2.484375 1.453125 -2.484375 4.984375l0 47.1875z" fill="#ffffff"/><path fill-rule="nonzero" d="m423.50455 185.22652l60.640625 0l0 6.640625l-14.515625 0q-3.453125 0 -5.09375 1.828125q-1.640625 1.8125 -1.640625 5.703125l0 103.32811q0 3.71875 2.078125 5.265625q2.09375 1.546875 8.375 1.546875l18.421875 0q14.6875 0 24.03128 -9.78125q9.34375 -9.78125 13.59375 -33.953125l6.1875 0l-3.0 50.375l-109.078156 0l0 -6.640625l10.703125 0q5.5 0 7.703125 -2.078125q2.21875 -2.078125 2.21875 -6.6875l0 -102.26561q0 -3.265625 -1.859375 -4.953125q-1.859375 -1.6875 -5.484375 -1.6875l-13.28125 0l0 -6.640625z" fill="#ffffff"/><path fill-rule="nonzero" d="m604.2927 185.22652l53.734375 0l0 6.640625l-6.28125 0q-6.8125 0 -9.078125 1.15625q-2.25 1.15625 -2.25 2.921875q0 1.328125 2.5625 5.046875l25.0625 36.828125l19.203125 -29.21875q3.71875 -5.65625 3.71875 -9.109375q0 -3.453125 -3.1875 -5.484375q-3.1875 -2.046875 -11.953125 -2.140625l0 -6.640625l47.546875 0l0 6.640625q-7.796875 0 -12.3125 2.65625q-6.109375 3.546875 -11.234375 11.15625l-26.921875 39.3125l41.34375 59.67186q1.78125 2.578125 4.390625 3.6875q2.609375 1.09375 9.078125 1.1875l0 6.640625l-51.890625 0l0 -6.640625l7.171875 0q5.234375 0 7.21875 -1.28125q1.984375 -1.28125 1.984375 -3.234375q0 -2.03125 -2.640625 -5.9375l-26.75 -38.953125l-19.828125 28.515625q-4.6875 6.71875 -4.6875 11.859375q0 4.34375 2.734375 6.6875q2.75 2.34375 8.0625 2.34375l5.140625 0l0 6.640625l-49.9375 0l0 -6.640625q7.78125 -0.265625 13.9375 -4.109375q6.15625 -3.859375 12.09375 -12.53125l27.703125 -40.031235l-35.765625 -51.34375q-4.25 -6.109375 -7.53125 -7.828125q-3.265625 -1.734375 -10.4375 -1.828125l0 -6.640625z" fill="#ffffff"/><path fill-rule="evenodd" d="m326.76117 143.0l129.82675 0l0 192.50394l-129.82675 0z" fill-opacity="0.0" fill="#000000"/><path fill-rule="nonzero" d="m343.62054 180.54375l68.671875 0l1.640625 29.234375l-3.9375 0q-2.34375 -13.828125 -7.40625 -19.328125q-5.0625 -5.515625 -13.21875 -5.515625l-16.984375 0q-2.046875 0 -3.109375 1.109375q-1.046875 1.109375 -1.046875 3.40625l0 30.875l7.4375 0q5.96875 0 9.6875 -4.28125q3.734375 -4.28125 4.015625 -13.125l4.046875 0l0 40.140625l-4.046875 0q-0.28125 -9.96875 -4.0625 -14.265625q-3.78125 -4.3125 -10.28125 -4.3125l-6.796875 0l0 34.45311q0 1.875 1.25 2.875q1.265625 1.0 4.1875 1.0l13.421875 0q21.859375 0 25.203125 -27.89061l4.21875 0l-1.46875 32.281235l-71.421875 0l0 -4.390625l5.90625 0q3.46875 0 4.875 -1.203125q1.40625 -1.203125 1.40625 -3.484375l0 -68.67186q0 -2.296875 -1.234375 -3.40625q-1.234375 -1.109375 -3.875 -1.109375l-7.078125 0l0 -4.390625z" fill="#ffffff"/><path fill-rule="evenodd" d="m492.1181 173.81102l136.25195 0l0 186.58269l-136.25195 0z" fill-opacity="0.0" fill="#000000"/><path fill-rule="nonzero" d="m564.8837 223.49915l5.984375 0l47.359375 120.671875q2.84375 7.3125 11.671875 7.3125l4.109375 0l0 6.6875l-52.625 0l0 -6.6875l4.1875 0q8.21875 0 11.609375 -1.78125q2.3125 -1.25 2.3125 -3.84375q0 -1.515625 -0.625 -3.203125l-10.96875 -28.015625l-52.09375 0l-6.140625 16.0625q-2.421875 6.421875 -2.421875 10.171875q0 4.359375 4.0625 7.484375q4.0625 3.125 11.8125 3.125l4.46875 0l0 6.6875l-47.8125 0l0 -6.6875q7.671875 0 12.125 -3.34375q4.46875 -3.34375 8.21875 -12.71875l44.765625 -111.921875zm-2.578125 25.421875l-23.640625 58.765625l46.640625 0l-23.0 -58.765625z" fill="#ffffff"/><path fill-rule="evenodd" d="m297.36484 351.49374l0 0c0 -8.830933 7.1588745 -15.989807 15.989807 -15.989807l133.91013 0c4.240753 0 8.307831 1.6846313 11.306519 4.683319c2.9986572 2.9986572 4.683319 7.065735 4.683319 11.306488l0 63.957367c0 8.830933 -7.158905 15.989838 -15.989838 15.989838l-133.91013 0c-8.830933 0 -15.989807 -7.158905 -15.989807 -15.989838z" fill="#ffffff"/><path fill-rule="nonzero" d="m319.0773 357.59244l17.328125 0l15.5 41.0625l14.3125 -41.0625l17.71875 0l0 2.640625l-4.328125 0q-2.28125 0 -3.078125 0.671875q-0.78125 0.65625 -0.78125 2.3125l0 41.171875q0 1.234375 0.9375 1.90625q0.953125 0.65625 3.28125 0.65625l3.96875 0l0 2.640625l-23.765625 0l0 -2.640625l4.421875 0q1.90625 0 2.8125 -0.71875q0.921875 -0.71875 0.921875 -1.84375l0 -44.15625l-17.1875 49.359375l-2.390625 0l-18.5 -49.15625l0 37.796875q0 3.375 0.84375 5.046875q0.84375 1.671875 2.40625 2.578125q1.5625 0.890625 5.1875 1.09375l0 2.640625l-19.609375 0l0 -2.640625q4.8125 -0.3125 6.53125 -2.0625q1.71875 -1.765625 1.71875 -6.234375l0 -35.859375q0 -1.328125 -0.8125 -1.9375q-0.796875 -0.625 -3.015625 -0.625l-4.421875 0l0 -2.640625z" fill="#000000"/><path fill-rule="nonzero" d="m396.97183 357.59244l24.078125 0l0 2.640625l-5.765625 0q-1.359375 0 -2.015625 0.71875q-0.65625 0.71875 -0.65625 2.265625l0 41.03125q0 1.46875 0.828125 2.09375q0.828125 0.609375 3.328125 0.609375l7.3125 0q5.828125 0 9.53125 -3.875q3.71875 -3.890625 5.40625 -13.484375l2.46875 0l-1.203125 20.0l-43.3125 0l0 -2.640625l4.25 0q2.1875 0 3.0625 -0.828125q0.875 -0.828125 0.875 -2.65625l0 -40.59375q0 -1.3125 -0.734375 -1.96875q-0.734375 -0.671875 -2.171875 -0.671875l-5.28125 0l0 -2.640625z" fill="#000000"/></g></svg>